<svg xmlns="http://www.w3.org/2000/svg" viewBox="0 0 32 32" role="img" aria-label="Blackjack">
  <defs>
    <linearGradient id="bg" x1="0%" y1="0%" x2="100%" y2="100%">
      <stop offset="0%" stop-color="#141a24"/>
      <stop offset="100%" stop-color="#0a0d12"/>
    </linearGradient>
    <linearGradient id="gold" x1="0%" y1="0%" x2="0%" y2="100%">
      <stop offset="0%" stop-color="#f4e4a6"/>
      <stop offset="50%" stop-color="#c9a227"/>
      <stop offset="100%" stop-color="#8a6b1a"/>
    </linearGradient>
  </defs>
  <rect width="32" height="32" rx="8" fill="url(#bg)"/>
  <path fill="url(#gold)" d="M16 5c-2.2 2.8-5 5.5-5 9.2 0 2.4 1.6 4.5 5 7.8 3.4-3.3 5-5.4 5-7.8C21 10.5 18.2 7.8 16 5zm0 19.5c-1.2 1.1-2.4 2-3.6 2.7-.5.3-.9.1-1.1-.4l-.6-1.5c-.2-.5.1-1 .7-1.1 1.3-.2 2.6-.7 3.8-1.4l1.2-.7 1.2.7c1.2.7 2.5 1.2 3.8 1.4.6.1.9.6.7 1.1l-.6 1.5c-.2.5-.6.7-1.1.4-1.2-.7-2.4-1.6-3.6-2.7z"/>
</svg>
